<svg xmlns="http://www.w3.org/2000/svg" viewBox="0 0 309.78 313.42"><defs><style>.a{fill:#ce973d;}</style></defs><path class="a" d="M125.59,100.27a.08.08,0,0,1-.07-.12,41.11,41.11,0,0,1,4.42-6.37,19.84,19.84,0,0,1,3-3c1.37-1.06,1.95-1.16,3-2a12.31,12.31,0,0,0,3-4c2.81-4.63,8.33-6.45,10-7a22.05,22.05,0,0,1,7-1,6.36,6.36,0,0,0,1,0c1.36-.14,1.84-.74,3-1a6,6,0,0,1,2,0,12.39,12.39,0,0,1,4,1c2.89,1.29,4.37,3.54,6,6a6.08,6.08,0,0,1,1,2c.43,1.66-.3,2.24,0,4s1.26,2,1,3c-.33,1.32-2.05,1.7-2,3,0,.36.16.62,0,1a4.3,4.3,0,0,1-1.07,1.06s0-.07.07-.06-.19.76,0,1,1.88-.07,3-1a6.32,6.32,0,0,0,2-4c.22-1.43,0-2.62-1-6s-1.91-5.76-2-6c-1.85-5-2.28-5.34-3-8a24.18,24.18,0,0,1-1-6,18.15,18.15,0,0,1,1-7,11.93,11.93,0,0,1,3-5,7.59,7.59,0,0,1,3-2,6.29,6.29,0,0,1,4,0,7.22,7.22,0,0,1,4,4c.18.39.19.51,1,3a1.61,1.61,0,0,0,0,1c.18.48.56.58,1,1a3.76,3.76,0,0,1,1,2,4.39,4.39,0,0,1,0,2c-.2.85-1,.88-1,2a3.56,3.56,0,0,1-1,3l-1,1h0c-.16.07-1.81,1.25-2,1s.4-.9,1-2a6.33,6.33,0,0,0,1-3,5,5,0,0,0-1-3,2.67,2.67,0,0,0-1-1c-.79-.37-1.2.15-2,0-1.09-.21-1.09-1.32-3-3-1.22-1.08-1.73-1.07-2-1a1.76,1.76,0,0,0-1,1,3.41,3.41,0,0,0,0,2,15.82,15.82,0,0,1,0,3,16.92,16.92,0,0,0,1,5c1,3.21,1.71,4.61,3,8,.77,2,1.91,5.17,3,9a35.41,35.41,0,0,1,1,4c.43,2.46.88,5.1,0,8a12.64,12.64,0,0,1-3,5c-3.9,4.21-8.26,3.71-11.61,5-.07,0-.64.06-.57-.07a15.11,15.11,0,0,0,1.09-3.12,36.12,36.12,0,0,0,1.09-6.79,23.27,23.27,0,0,0,0-6,14.08,14.08,0,0,0-2-5,15,15,0,0,0-4-4,8.66,8.66,0,0,0-4-2,7.49,7.49,0,0,0-2,0,7,7,0,0,0-3,1,7.83,7.83,0,0,0-2,2c-1.62,2-2,2.41-2,3,0,.37.17.64,0,1s-.77.49-1,1c-.15.35,0,.56,0,1,0,.81-.51,1.23-1,2a7.49,7.49,0,0,0-1,3,6.56,6.56,0,0,0,0,3s0,0,0,.06a7,7,0,0,0,1,1.94,6.57,6.57,0,0,0,0,1,6.06,6.06,0,0,0,2,4c1.11.9,2.71,1.39,3,1s-.44-.87-1-2a8.15,8.15,0,0,1,0-7c.26-.53.91-1.83,2-2,.37-.06.52,0,1,0a4.37,4.37,0,0,0,2-1c2.41-1.62,2.55-1.35,3-2,.25-.35.47-.81,1-1a1.43,1.43,0,0,1,1,0c.66.28.88,1.18,1,2a15.62,15.62,0,0,1,0,5c-.5,2.44-1.08,3-2,6a39.16,39.16,0,0,0-1,3.93.08.08,0,0,1-.08.07h-2.64a.74.74,0,0,0-.51.2c-.22.21-.49.48-.78.8a13.65,13.65,0,0,0-2,3,26.4,26.4,0,0,0-3,8c-.57,3.23-2,8.78,0,9,9,1,16,3,24,4a21.55,21.55,0,0,1,6,2,6.53,6.53,0,0,1,1.88,1.81.75.75,0,0,1,.12.41v6.38a.4.4,0,0,1-.39.4h0l-2,2.74c.34,1-.64,1-.64.44v-3.44a.74.74,0,0,0-.74-.74h-.76a.34.34,0,0,1-.32-.47,16.75,16.75,0,0,0,.88-6.95.74.74,0,0,0-.61-.68l-26.51-4.74a.75.75,0,0,0-.87.79l.93,14.05,1,11.54a2.67,2.67,0,0,1,0,.46v4a45.09,45.09,0,0,0,0,5.35.76.76,0,0,0,.67.72l8.36.93v1a5,5,0,0,0-4,0c-.78.4-1.15,1-2,1-.67,0-1.17-.37-2-1a11,11,0,0,1-2-2,.08.08,0,0,1,0-.05V148.66l-.34-1.86a63,63,0,0,1-2.66-9c-.45-2.09-.77-4.06-1-5.9a.07.07,0,0,0-.1-.06,2.43,2.43,0,0,1-1.91,0,2.34,2.34,0,0,1-1-1l5-9.92a.55.55,0,0,0,0-.17c.33-3.54,1-6.77,1-10.6a1,1,0,0,0-.18-.57c-1.08-1.53-2-2.78-2.82-3.74a24.53,24.53,0,0,0-4-4,4.94,4.94,0,0,0-2-1,4.45,4.45,0,0,0-2,0,3.69,3.69,0,0,0-2,1c-.41.43-.49.78-1,1-.31.13-.8.22-1,0s.17-.79,0-1-.89-.1-3,1h-2a11.71,11.71,0,0,0-3,2,17.64,17.64,0,0,0-3,4c-.09-.06,1.08-3.15,2-6,.18-.55.45-1.44,0-2A1.69,1.69,0,0,0,125.59,100.27Z"/><circle class="a" cx="155.44" cy="89.28" r="1.5"/><circle class="a" cx="155.44" cy="89.28" r="0.5"/><circle class="a" cx="179.94" cy="57.78" r="1"/><circle class="a" cx="180.44" cy="57.28" r="0.5"/><path class="a" d="M294.09,75.69c-6.78-9-42.3-54.24-105.83-62.46-13.82-1.78-56-5.32-98.61,20.44-9.43,5.7-57.39,36.11-69.74,97.72C9.44,183.67,31.45,224.26,37.68,234.88a150.29,150.29,0,0,0,47.08,49.31c55,35.77,115.94,22.36,129.26,19.1-14,4.86-70.19,22.62-126.59-4.89a156.46,156.46,0,0,1-50.19-39.53C25.13,244.49,3.47,213.52.37,169.14c-3.63-51.89,20.4-89.52,30.2-103C37,57.3,69.07,14.87,128.74,3a158.4,158.4,0,0,1,88.84,8C263.66,29.32,286.89,63.91,294.09,75.69Z"/><path class="a" d="M196,27.1a146.24,146.24,0,0,1,35.59,16.06c36.18,23,52.59,58,52.59,58,5.61,12,19,45.18,9.14,86.35-2.08,8.71-11.63,44.65-45.69,71.74-36.79,29.25-86.71,35.89-128.39,21-5.47-2-38.35-14.17-62.14-46.6-25.39-34.61-27.38-82-27-72.19.05,1.12-3,40.21,21,77.22,28.11,43.33,74.43,55.92,82.7,58,9.39,2.39,61.79,14.7,111.94-17.82,41.24-26.73,54.65-66.71,58-78.13,4.31-14.59,11.92-49.06-2.29-86.81a144.25,144.25,0,0,0-32.9-49.8A125.49,125.49,0,0,0,243.08,44c-25.47-15-52.56-18.22-52.54-18.28A50,50,0,0,1,196,27.1Z"/><path class="a" d="M76.62,225V189.46H90.35V193H81.58v11.82h6.8v3.54h-6.8V225Z"/><path class="a" d="M93.78,225V189.46h5v32h9.07V225Z"/><path class="a" d="M109.25,225l7.59-35.56h4.78l7.6,35.56H124.5l-1.63-9h-7.23l-1.7,9Zm7-12.5h5.94l-3-16.07Z"/><path class="a" d="M132.71,225l.67-35.56h4.84l6.29,28.85,6.33-28.85h4.84l.67,35.56h-4L152,199.18l-6,25.84h-2.78l-6-25.84L136.77,225Z"/><path class="a" d="M162.05,225V189.46h4.87V225Z"/><path class="a" d="M172.69,225V189.46h3.37l10.1,23.62V189.46h4.14V225h-3.17l-10.25-24.3V225Z"/><path class="a" d="M204.35,225.45q-4.84,0-7-3c-1.43-2-2.15-5.06-2.15-9V201.45a30,30,0,0,1,.27-4.29,13.89,13.89,0,0,1,.93-3.41,7.17,7.17,0,0,1,1.72-2.55,7.44,7.44,0,0,1,2.73-1.54,12.49,12.49,0,0,1,3.88-.54c3.29,0,5.65.83,7.1,2.51s2.16,4.3,2.16,7.89v1.31h-4.65v-1.12c0-1,0-1.82-.09-2.47a8.62,8.62,0,0,0-.35-1.86,3.12,3.12,0,0,0-.77-1.36,3.53,3.53,0,0,0-1.32-.76,6.23,6.23,0,0,0-2-.28,6.16,6.16,0,0,0-1.63.2,4.44,4.44,0,0,0-1.2.54,2.63,2.63,0,0,0-.82.92,6.26,6.26,0,0,0-.53,1.16,7.13,7.13,0,0,0-.3,1.46c-.07.59-.12,1.13-.13,1.62s0,1.09,0,1.82v13.17q0,4.09,1,5.88c.65,1.18,1.91,1.78,3.77,1.78a4,4,0,0,0,3.82-1.93q1-1.93,1-6.2v-2.49h-4.51v-3.52h9V225h-3.15l-.47-4.09A6.19,6.19,0,0,1,204.35,225.45Z"/><path class="a" d="M228.44,225.41a12,12,0,0,1-4.56-.79,6.92,6.92,0,0,1-3-2.34,10.19,10.19,0,0,1-1.63-3.61,19.54,19.54,0,0,1-.52-4.8V200.4q0-5.55,2.27-8.42c1.5-1.91,4-2.86,7.45-2.86s5.93,1,7.44,2.88,2.28,4.72,2.28,8.4v13.49c0,3.7-.77,6.55-2.29,8.54S231.87,225.41,228.44,225.41ZM226,221.08a6.68,6.68,0,0,0,4.82,0,3.08,3.08,0,0,0,1.45-1.38,6.69,6.69,0,0,0,.68-2,17.49,17.49,0,0,0,.18-2.74V199.37a16.58,16.58,0,0,0-.18-2.68,6.38,6.38,0,0,0-.68-2,2.92,2.92,0,0,0-1.45-1.32,7.12,7.12,0,0,0-4.82,0,2.92,2.92,0,0,0-1.45,1.32,6.13,6.13,0,0,0-.68,2,16.58,16.58,0,0,0-.18,2.68v15.57a17.49,17.49,0,0,0,.18,2.74,6.42,6.42,0,0,0,.68,2A3.08,3.08,0,0,0,226,221.08Z"/></svg>